# xmcd CD database file
#
# Track frame offsets:
#	150
#	15705
#	25195
#	40610
#	60662
#	80080
#	93970
#	109087
#	125422
#	139142
#
# Disc length: 2274 seconds
#
# Revision: 1
# Processed by: cddbd v1.5PL3 Copyright (c) Steve Scherf et al.
# Submitted via: CDex 1.51
#
DISCID=7b08e00a
DTITLE=ZIGGY - Hot Lips
DYEAR=1988
DGENRE=Hard Rock
TTITLE0=Hot Lips
TTITLE1=What Do You Want?
TTITLE2=Born To Be Free
TTITLE3=Highway Driving Night
TTITLE4=Gloria
TTITLE5=Playing On The Rocks
TTITLE6=Last Danceは　お前に
TTITLE7=Tokyo City Night
TTITLE8=Poor Boy
TTITLE9=Startin' Again
EXTD=YEAR: 1988
EXTT0=
EXTT1=
EXTT2=
EXTT3=
EXTT4=
EXTT5=
EXTT6=
EXTT7=
EXTT8=
EXTT9=
PLAYORDER=
